<svg xmlns="http://www.w3.org/2000/svg" width="95.465" height="95.27" viewBox="0 0 95.465 95.27">
  <path id="progress-icon" d="M124.733,53.26a2.612,2.612,0,1,1-1.844-3.2A2.575,2.575,0,0,1,124.733,53.26ZM158.2,61.894a34.669,34.669,0,0,1-3.978,9.6l5.239,7.276a3.389,3.389,0,0,1-.388,4.366l-3.1,3.2-3.1,3.2a3.389,3.389,0,0,1-4.366.388l-7.374-5.239a37.148,37.148,0,0,1-9.314,3.88L130.36,97.5a3.434,3.434,0,0,1-3.4,2.813h-8.926a3.435,3.435,0,0,1-3.4-2.813l-1.455-8.829a39.13,39.13,0,0,1-9.6-3.88l-7.373,5.239a3.389,3.389,0,0,1-4.366-.388l-6.4-6.21a3.389,3.389,0,0,1-.388-4.366l5.142-7.276a35.62,35.62,0,0,1-4.075-9.508l-8.926-1.455a3.638,3.638,0,0,1-2.716-3.493V48.408a3.435,3.435,0,0,1,2.813-3.4l8.829-1.358a39.13,39.13,0,0,1,3.88-9.6l-5.239-7.373a3.389,3.389,0,0,1,.388-4.366l6.21-6.4a3.389,3.389,0,0,1,4.366-.388L103,20.661a31.865,31.865,0,0,1,9.8-4.075l1.649-8.731a3.434,3.434,0,0,1,3.4-2.813h8.926a3.435,3.435,0,0,1,3.4,2.813l1.552,8.926a34.669,34.669,0,0,1,9.6,3.978l7.276-5.239a3.5,3.5,0,0,1,4.366.291l6.4,6.21a3.389,3.389,0,0,1,.388,4.366l-5.531,7.372a37.9,37.9,0,0,1,3.978,9.6l8.926,1.455a3.434,3.434,0,0,1,2.813,3.4v8.926a3.435,3.435,0,0,1-2.813,3.4Zm-50.643-.485a2.413,2.413,0,1,0-.873,3.3A2.393,2.393,0,0,0,107.561,61.409Zm6.306,6.112a2.413,2.413,0,0,0-3.3,3.3,1.9,1.9,0,0,0,.873.873,2.424,2.424,0,0,0,3.3-.97,2.323,2.323,0,0,0-.873-3.2Zm8.44-31.628a16.464,16.464,0,0,1,9.314,2.813l4.366-2.134a6.738,6.738,0,0,1,1.261-.485A22.32,22.32,0,0,0,99.9,52.677a2.813,2.813,0,1,0,5.626,0,16.729,16.729,0,0,1,16.785-16.784Zm2.62,36.285a2.425,2.425,0,1,0-4.851,0,2.066,2.066,0,0,0,.291,1.164,2.531,2.531,0,0,0,2.134,1.164,2.266,2.266,0,0,0,2.425-2.328ZM140.45,44.722a2.332,2.332,0,0,0,.679-3.2,2.508,2.508,0,0,0-3.1-.97l-13.485,6.6a5.923,5.923,0,1,0,.873,10.575,6.164,6.164,0,0,0,2.911-4.463ZM134.338,68.3a2.413,2.413,0,1,0-.873,3.3A2.393,2.393,0,0,0,134.338,68.3Zm6.112-8.149a2.413,2.413,0,0,0-3.3,3.3,1.9,1.9,0,0,0,.873.873,2.393,2.393,0,0,0,3.3-.873,2.315,2.315,0,0,0-.873-3.3Zm3.784-7.665a2.425,2.425,0,0,0-4.851,0,2.066,2.066,0,0,0,.291,1.164,2.531,2.531,0,0,0,2.134,1.164,2.266,2.266,0,0,0,2.425-2.328Z" transform="translate(-74.478 -5.043)"/>
</svg>
