<svg xmlns="http://www.w3.org/2000/svg" width="12.571" height="16" viewBox="0 0 12.571 16">
  <path id="files" d="M16.4,6.011,12.561,2.168a.57.57,0,0,0-.4-.168H4.571A.571.571,0,0,0,4,2.571V17.429A.571.571,0,0,0,4.571,18H16a.571.571,0,0,0,.571-.571V6.416A.575.575,0,0,0,16.4,6.011Zm-1.15.668H11.893V3.318Zm.032,10.036h-10V3.286h5.393V7.143a.75.75,0,0,0,.75.75h3.857ZM10.857,9.286a.143.143,0,0,0-.143-.143H9.857a.143.143,0,0,0-.143.143v1.929H7.786a.143.143,0,0,0-.143.143v.857a.143.143,0,0,0,.143.143H9.714v1.929a.143.143,0,0,0,.143.143h.857a.143.143,0,0,0,.143-.143V12.357h1.929a.143.143,0,0,0,.143-.143v-.857a.143.143,0,0,0-.143-.143H10.857Z" transform="translate(-4 -2)" fill="#1a1818"/>
</svg>
