<?xml version="1.0" encoding="utf-8"?>
<!-- Generator: Adobe Illustrator 26.0.3, SVG Export Plug-In . SVG Version: 6.00 Build 0)  -->
<svg version="1.1" id="Layer_1" xmlns="http://www.w3.org/2000/svg" xmlns:xlink="http://www.w3.org/1999/xlink" x="0px" y="0px"
	 width="40px" height="41px" viewBox="0 0 40 41" style="enable-background:new 0 0 40 41;" xml:space="preserve">
<path d="M37.8,10.6h-2.3c0,0-0.1,0-0.1,0c0,0,0-0.1,0-0.2c0.1-0.6,0.1-1.1,0.2-1.7c0-0.2,0-0.4,0.1-0.7c0-0.5,0.1-1,0.2-1.4v0
	c0.1-1,0.2-2.1,0.3-3.1c0-0.1,0-0.1,0-0.2c0-0.7-0.6-1.3-1.3-1.3c-0.4,0-0.9-0.1-1.2-0.1l-0.1,0l-0.6-0.1c0,0-0.1,0-0.1,0h0
	c-0.3,0-0.5,0.2-0.5,0.5c0,0.1,0,0.3,0.1,0.4c0.1,0.1,0.3,0.2,0.5,0.2C33.3,3,34,3.1,34.6,3.1c0.1,0,0.2,0,0.2,0.1
	c0.1,0.1,0.1,0.2,0,0.2c-0.1,0.6-0.1,1.2-0.2,1.8c0,0.4-0.1,0.8-0.1,1.2c-0.3,2.8-0.6,5.7-0.8,8.5c0,0.1,0,0.2,0,0.3
	c0,0.4,0,0.4-0.3,0.4h-0.5c-0.2,0-0.2-0.1-0.2-0.2c0-0.4,0-0.7,0-1.1c0-0.1,0-0.2,0-0.4c0-0.5,0-0.9-0.1-1.3
	c-0.1-1.2-0.1-2.5-0.2-3.7V8.9c0-0.7-0.6-1.3-1.3-1.3c-0.1,0-0.1,0-0.2,0c-0.9,0-1.8,0.1-2.8,0.2H28c-0.3,0-0.3-0.1-0.4-0.4
	c-0.1-0.9-0.2-1.8-0.4-2.7c0,0,0-0.1,0-0.2c-0.2-0.7-0.8-1.2-1.5-1c-0.6,0.1-1.3,0.2-2,0.3h0l-1,0.2c-2.3,0.3-4.8,0.7-7.5,1.1
	c0,0-0.1,0-0.1,0c0,0-0.1,0-0.1,0c0,0,0-0.1,0-0.2c0.1-1,0.2-2.1,0.3-3.2c0-0.3,0.1-0.4,0.4-0.4h0.1c1,0.1,1.9,0.2,2.9,0.3h0l1,0.1
	l7.8,0.8l0.3,0c0.6,0.1,1.1,0.1,1.7,0.2h0.1c0.3,0,0.5-0.2,0.5-0.5c0.1-0.3-0.1-0.6-0.4-0.6c-0.2,0-0.3-0.1-0.5-0.1l-2.4-0.2
	C25.9,1,24.9,0.9,24,0.9l-3.2-0.3l-0.1,0C19,0.4,17.3,0.2,15.6,0c-0.1,0-0.1,0-0.2,0h0c-0.7,0-1.3,0.6-1.3,1.3
	C14,1.8,14,2.4,13.9,2.9v0c-0.1,0.6-0.1,1.3-0.2,2c0,0.3-0.1,0.3-0.4,0.4c-1.5,0.2-3.1,0.4-4.6,0.6L6.5,6.2c0,0,0,0-0.1,0
	C5.7,6.4,5.2,7,5.4,7.7c0,0.2,0.1,0.4,0.1,0.6c0.1,0.6,0.2,1.2,0.3,1.9c0,0.1,0,0.2,0,0.3c-0.1,0.1-0.2,0.1-0.3,0.1h0
	c-0.4,0-0.8,0-1.3,0H2.4c-0.1,0-0.1,0-0.2,0c-0.1,0-0.1,0-0.2,0c-1.2,0.1-2.1,1.2-2,2.4v25.6c0,0.3,0,0.6,0.1,0.8
	C0.4,40.2,1,40.8,1.8,41h4.6l0,0c0.2-0.2,0.4-0.5,0.2-0.8c-0.2-0.4-0.5-0.4-0.8-0.4H2.5c-1,0-1.3-0.4-1.3-1.4V13
	c0-0.3,0.1-0.7,0.3-0.9c0.2-0.2,0.5-0.3,0.8-0.3c0,0,0.1,0,0.1,0h3.1c0.7,0,1.3,0,1.8,0h0.1c0.2,0,0.3,0.1,0.3,0.3
	c0.3,1,0.7,2.1,1,3.1l0.3,1c0.2,0.7,0.3,0.7,1,0.7h8.7c6.5,0,13.1,0,19.8,0c0.4,0,0.4,0.1,0.4,0.4c0,7.6,0,14.5,0,21.1
	c0,1.1-0.3,1.4-1.4,1.4H9.9c-0.3,0-0.6,0-0.8,0.4c-0.1,0.3,0,0.7,0.3,0.8h28.7c1.1-0.2,2-1.2,1.9-2.4V12.8
	C40,11.6,39,10.6,37.8,10.6z M10.6,15.2c0,0,0,0.1,0,0.1c0,0.1,0,0.2,0,0.2c0,0.1-0.1,0.1-0.2,0.1c0,0-0.1,0-0.1,0
	c-0.2,0-0.3-0.2-0.4-0.4c-0.3-0.9-0.6-1.8-0.8-2.7c-0.2-0.4-0.3-0.9-0.4-1.3c-0.2-0.6-0.3-0.7-0.9-0.7c-0.8,0-0.8,0-0.9-0.8v0
	C6.7,9.1,6.7,8.4,6.5,7.7c0-0.1,0-0.2,0-0.3c0.1-0.1,0.2-0.1,0.3-0.1c4.3-0.6,8.7-1.2,13-1.8l5.8-0.8c0.1,0,0.1,0,0.2,0
	c0,0,0.1,0,0.1,0c0.1,0,0.2,0.1,0.2,0.3c0.1,0.9,0.2,1.7,0.4,2.6c0,0.1,0,0.2,0,0.2c0,0-0.1,0.1-0.2,0.1c-1.5,0.1-3,0.2-4.4,0.2
	l-0.1,0l-2.2,0.1L16,8.4h-0.1c-1.4,0.1-2.9,0.1-4.3,0.2h0c-0.1,0-0.1,0-0.2,0c-0.7,0.1-1.2,0.8-1.1,1.5
	C10.4,11.9,10.5,13.6,10.6,15.2z M31.5,15.6c-0.1,0.1-0.1,0.1-0.3,0.1h0c-2.1,0-4.1,0-5.9,0v0h-8.4c-1.9,0-3.4,0-4.7,0
	c-0.3,0-0.4-0.1-0.4-0.4c-0.1-1.6-0.2-3.3-0.3-5c0-0.1,0-0.2,0.1-0.3c0.1-0.1,0.2-0.1,0.3-0.1C17,9.6,22.3,9.3,28,8.9l0.6,0h0
	c0.8,0,1.5-0.1,2.3-0.1h0.1c0.2,0,0.3,0.1,0.3,0.3c0.1,2,0.2,4.1,0.3,6.2C31.5,15.4,31.5,15.5,31.5,15.6z M38.8,15.4
	c0,0.2-0.1,0.3-0.3,0.3h0c-0.2,0-0.4,0-0.6,0l-0.5,0h-2.3c-0.1,0-0.2,0-0.2-0.1c0-0.1,0-0.1,0-0.2c0.1-1.1,0.2-2.2,0.3-3.3
	c0-0.3,0.1-0.4,0.3-0.4h0c0.2,0,0.5,0,0.7,0h1.5c0.6,0,1,0.6,1,1.1V15.4z M20,29.6l-10.4,0v4.5h20.8v-4.5H20 M20,28.6h10.6
	c0.7,0,0.8,0.2,0.8,0.8v4.9c0,0.6-0.2,0.8-0.8,0.8H9.4c-0.6,0-0.8-0.2-0.8-0.8v-5c0-0.6,0.2-0.8,0.8-0.8L20,28.6z M20,32.4h-7
	c-0.3,0-0.6-0.1-0.7-0.4c-0.1-0.3,0-0.6,0.3-0.7c0,0,0.1,0,0.1,0c0.1,0,0.3,0,0.4,0h13.9c0.4,0,0.7,0.2,0.7,0.6
	c0,0.4-0.3,0.6-0.7,0.6h-3.6L20,32.4z"/>
</svg>
