<?xml version="1.0" encoding="utf-8"?>
<!-- Generator: Adobe Illustrator 26.0.3, SVG Export Plug-In . SVG Version: 6.00 Build 0)  -->
<svg version="1.1" id="Layer_1" xmlns="http://www.w3.org/2000/svg" xmlns:xlink="http://www.w3.org/1999/xlink" x="0px" y="0px"
	 width="41px" height="41px" viewBox="0 0 41 41" style="enable-background:new 0 0 41 41;" xml:space="preserve">
<path id="frame2" transform="translate(0.021 -0.002)" d="M1.8,41c-1,0-1.8-0.8-1.8-1.8c0-0.1,0-0.1,0-0.2V9.5c0-0.1,0-0.2,0-0.3
	c0-0.3,0.3-0.5,0.6-0.5h0.1c0.3,0,0.5,0.2,0.6,0.5c0,0.1,0,0.3,0,0.4v29.2c0,0.8,0.1,0.9,1,0.9H28c0.8,0,0.9-0.1,0.9-0.9v-6.7
	c-0.7,0.2-1.3,0.4-2,0.5c-0.5,0.1-1.1,0.1-1.6,0.1H11.9h-0.1h0c-0.1,0-0.3-0.1-0.4-0.2c-0.1-0.1-0.2-0.3-0.2-0.4
	c0-0.3,0.2-0.6,0.5-0.6c0.1,0,0.2,0,0.3,0c0,0,0.1,0,0.1,0h8.1c-0.6-0.3-1.2-0.7-1.8-1.2c-0.3-0.3-0.8-0.5-1.2-0.5
	c-0.1,0-0.1,0-0.2,0c-0.6,0-1.2,0-2,0c-0.5,0-0.9,0-1.4,0h0c-0.5,0-1,0-1.4,0H12c-0.1,0-0.3,0-0.4-0.1c-0.3-0.1-0.5-0.4-0.4-0.8
	c0.1-0.2,0.2-0.3,0.5-0.4c0.1,0,0.2,0,0.3,0h0.1h4.5c0-0.1,0-0.2-0.1-0.3c0,0,0,0-0.1-0.1c-0.8-1.1-1.4-2.5-1.7-3.8
	c-0.1-0.2-0.1-0.3-0.4-0.3h0c-0.3,0-0.7,0-1.1,0h-0.7h0h-0.7h0c-0.3,0-0.5-0.2-0.6-0.4c-0.1-0.2,0-0.5,0.2-0.7
	c0.1-0.1,0.3-0.1,0.4-0.1c0,0,0.1,0,0.1,0h0.7h0.7c0.3,0,0.6,0,1,0h0c0.1,0,0.2,0,0.2-0.1c0.1-0.1,0.1-0.2,0.1-0.3
	c0-0.4,0-0.8,0-1.2c0-0.1,0-0.2,0-0.2c0,0-0.1-0.1-0.2-0.1c-0.3,0-0.5,0-0.8,0h-1.6c-0.2,0-0.4-0.1-0.6-0.2
	c-0.1-0.1-0.2-0.3-0.1-0.4c0-0.4,0.3-0.6,0.7-0.6h1.7c0.3,0,0.6,0,0.9,0c0,0,0,0,0.1,0s0,0,0.1,0c0.1,0,0.2,0,0.2-0.2
	c0.3-1.5,1-2.9,1.9-4.1c0-0.1-0.1-0.1-0.2-0.1c0,0,0,0-0.1,0c0,0,0,0-0.1,0h-4.3H12c-0.1,0-0.2,0-0.3,0c-0.3,0-0.5-0.3-0.5-0.5
	c0-0.3,0.1-0.5,0.4-0.6c0.1,0,0.3,0,0.4,0h0.1c0.9,0,1.8,0,2.7,0s1.8,0,2.7,0h0c0.2,0,0.4-0.1,0.5-0.2c0.6-0.6,1.3-1.1,2-1.5h-8
	c0,0-0.1,0-0.1,0c-0.1,0-0.3,0-0.4-0.1c-0.3-0.1-0.4-0.5-0.3-0.8c0.1-0.2,0.3-0.3,0.4-0.3c0.1,0,0.1,0,0.2,0h0h6.7h6.7
	c1.1,0,2.2,0.2,3.3,0.6c0,0,0,0,0,0c0,0,0.1,0,0.1,0c0,0,0.1,0,0.1,0V8.8c0-0.1,0-0.1,0-0.2c0,0-0.1,0-0.1,0c0,0-0.1,0-0.1,0
	c0,0-0.1,0-0.1,0h-5.1c-1,0.1-1.9-0.6-2-1.6c0-0.1,0-0.3,0-0.4c0-0.4,0-0.8,0-1.2c0-1.3,0-2.6,0-3.9c0-0.2,0-0.2-0.1-0.3
	c-0.1-0.1-0.2-0.1-0.3-0.1c-6.3,0-12.8,0-19.1,0C1.4,1.2,1.2,1.4,1.2,2v4.7c0,0.5-0.2,0.8-0.6,0.8S0,7.2,0,6.7c0-0.4,0-0.9,0-1.3v0
	c0-1,0-2.1,0-3.1c-0.1-1,0.5-2,1.5-2.2h20.8c0,0,0.1,0.1,0.1,0.1c0.1,0.1,0.2,0.2,0.3,0.2c2.2,2.2,4.6,4.6,7.1,7.1
	C30,7.7,30.2,8,30.1,8.3c0,0.8,0,1.6,0,2.3v0c0,0.6,0,1.3,0,1.9c0,0.2,0.1,0.4,0.3,0.5c2.7,1.5,4.5,4.1,5.1,7
	c0.1,0.2,0.1,0.5-0.1,0.7c-0.1,0.1-0.2,0.2-0.4,0.2c0,0-0.1,0-0.1,0c-0.3,0-0.5-0.2-0.6-0.7c-1-5.1-5.9-8.4-11-7.4
	c-0.1,0-0.3,0.1-0.4,0.1c-3.7,0.8-6.4,3.7-7,7.4c-0.9,5.1,2.5,10,7.6,10.9s10-2.5,10.9-7.6c0-0.1,0-0.3,0.1-0.4c0-0.2,0-0.4,0.1-0.6
	c0-0.4,0.3-0.6,0.6-0.6h0c0.2,0,0.3,0.1,0.5,0.2c0.1,0.1,0.2,0.3,0.1,0.5c-0.1,1.6-0.6,3.2-1.4,4.6c-0.2,0.3-0.2,0.5,0.1,0.8
	c0.2,0.2,0.5,0.4,0.7,0.7c0,0,0.1,0.1,0.1,0.1c0.1,0.1,0.2,0.3,0.4,0.3c0.1,0,0.2,0,0.3-0.1c0,0,0.1,0,0.1,0c0.2,0,0.3,0.1,0.4,0.2
	c1.4,1.4,2.6,2.6,3.8,3.9c0.4,0.4,0.6,0.9,0.7,1.5v1c-0.1,0-0.1,0.1-0.1,0.2c0,0,0,0.1,0,0.1c-0.5,1.5-2,2.3-3.5,1.9
	c-0.4-0.1-0.8-0.3-1.1-0.6c-1-0.9-1.9-1.8-2.8-2.7l0,0c-0.4-0.4-0.7-0.7-1.1-1.1c-0.2-0.2-0.3-0.5-0.1-0.8c0.1-0.1,0.1-0.2,0-0.3
	c0,0,0,0,0,0c-0.4-0.4-0.8-0.8-1.2-1.2c0-0.1-0.1-0.1-0.2-0.1c-0.1,0-0.1,0-0.2,0c-0.4,0.1-0.7,0.6-0.6,1c0,1.6,0,3.3,0,4.9v0
	c0,0.6,0,1.2,0,1.8c0.1,1-0.6,1.9-1.6,2c-0.1,0-0.1,0-0.2,0c-0.1,0-0.1,0-0.2,0H2C1.9,41,1.9,41,1.8,41z M35.9,30.8
	c-0.1,0-0.1,0-0.2,0.1c-0.6,0.6-1.2,1.3-1.9,1.9l-0.1,0.1c-0.1,0.1-0.2,0.2,0,0.3c0.4,0.4,0.8,0.8,1.2,1.2l0,0
	c0.7,0.7,1.4,1.4,2.2,2.2c0.5,0.4,1.2,0.5,1.8,0.2c0.6-0.3,0.9-0.8,0.9-1.5l0,0h0c0-0.5-0.2-0.9-0.5-1.2c-1.1-1.1-2.1-2.1-3.2-3.2
	C36.1,30.8,36,30.8,35.9,30.8z M33.3,29.1c-0.1,0-0.1,0-0.2,0.1c-0.3,0.4-0.7,0.7-1.1,1.1l0,0c0,0-0.1,0.1-0.1,0.1c0,0,0,0,0,0
	c0.4,0.4,0.8,0.8,1.3,1.2l0,0c0,0,0.1,0,0.1-0.1l0.5-0.5c0.2-0.2,0.5-0.5,0.7-0.7c0,0,0.1-0.1,0.1-0.1c0-0.1,0-0.1-0.1-0.1l0,0l0,0
	l-0.2-0.2l0,0c-0.2-0.2-0.5-0.5-0.7-0.7C33.4,29.1,33.4,29.1,33.3,29.1L33.3,29.1z M23.3,7.5L23.3,7.5c0.9,0,1.7,0,2.5,0h0.1
	c0.7,0,1.4,0,2,0l-5.2-5.2c0,0.5,0,1,0,1.5c0,1,0,2.1,0,3.1c0,0.3,0.2,0.6,0.5,0.6C23.2,7.5,23.2,7.5,23.3,7.5L23.3,7.5z M33,22.3
	c0,4.3-3.5,7.8-7.9,7.8c-2.4,0-4.6-1.1-6.1-3c-0.3-0.4-0.3-0.7,0-1s0.6-0.1,1,0.2c1.5,2,4.1,2.9,6.6,2.3c2.4-0.4,4.3-2.2,5-4.6
	c1-3.5-1-7.2-4.5-8.2s-7.2,1-8.2,4.5c-0.1,0.2-0.1,0.4-0.2,0.6c-0.2,1-0.2,2.1,0.1,3c0,0.1,0,0.2,0.1,0.2c0.1,0.3-0.1,0.7-0.4,0.8
	c0,0,0,0,0,0c-0.3,0.1-0.7-0.1-0.7-0.5c0,0,0,0,0,0c-0.3-0.9-0.4-1.8-0.4-2.7c0.2-4.3,3.9-7.6,8.2-7.4c3.6,0.2,6.6,2.8,7.3,6.3
	C32.9,21.2,33,21.8,33,22.3z M8,15.2c0.2,0,0.3-0.1,0.3-0.3c0-0.4,0-0.7,0-1.1c0-0.4,0-0.8,0-1.2c0-0.2-0.1-0.3-0.3-0.3
	c-0.8,0-1.6,0-2.4,0c-0.2,0-0.3,0.1-0.3,0.3c0,0.8,0,1.6,0,2.4c0,0.2,0.1,0.3,0.3,0.3C6.4,15.2,7.2,15.2,8,15.2 M8,16.5L8,16.5
	c-0.4,0-0.8,0-1.2,0s-0.8,0-1.2,0h0C4.8,16.5,4,15.9,4,15c0,0,0-0.1,0-0.1v0c0-0.8,0-1.6,0-2.3v0C4,11.7,4.7,11,5.5,11
	c0,0,0.1,0,0.1,0h0c0.5,0,1,0,1.6,0H8c0.8,0,1.6,0.6,1.6,1.5c0,0,0,0.1,0,0.1c0,0.3,0,0.5,0,0.8c0,0.1,0,0.3,0,0.4
	c0,0.1,0,0.3,0,0.4c0,0.2,0,0.5,0,0.7v0c0,0.8-0.6,1.6-1.4,1.6C8.1,16.5,8,16.5,8,16.5L8,16.5z M5.6,29.3c-0.2,0-0.3,0.1-0.3,0.3
	c0,0.8,0,1.5,0,2.3c0,0.2,0.1,0.3,0.3,0.3c0.8,0,1.5,0,2.3,0c0.2,0,0.3-0.1,0.3-0.3c0-0.8,0-1.5,0-2.3c0-0.3-0.1-0.3-0.4-0.3
	c-0.4,0-0.7,0-1.1,0C6.4,29.3,6,29.3,5.6,29.3L5.6,29.3 M5.6,28L5.6,28c0.2,0,0.3,0,0.5,0c0.2,0,0.5,0,0.7,0h0.4h0.3
	c0.1,0,0.2,0,0.3,0h0.1c0.9,0,1.6,0.6,1.6,1.5c0,0.1,0,0.1,0,0.2c0,0.7,0,1.4,0,2.2v0c0,0.9-0.6,1.6-1.5,1.6c0,0-0.1,0-0.1,0h0
	c-0.7,0-1.5,0-2.3,0h0c-0.9,0-1.6-0.6-1.6-1.5c0,0,0-0.1,0-0.1v0c0-0.7,0-1.5,0-2.3v0c0-0.8,0.6-1.6,1.5-1.6C5.5,28,5.6,28,5.6,28
	L5.6,28z M6.7,23.6c0.4,0,0.8,0,1.2,0c0.2,0,0.3-0.1,0.3-0.2c0-0.8,0-1.6,0-2.4c0-0.2-0.1-0.3-0.3-0.3c-0.8,0-1.6,0-2.4,0
	c-0.2,0-0.3,0.1-0.3,0.2v2.4c0,0.2,0.1,0.3,0.3,0.3C6,23.6,6.4,23.6,6.7,23.6 M6.7,24.9c-0.2,0-0.5,0-0.7,0c-0.1,0-0.2,0-0.3,0h0
	c-0.8,0-1.5-0.6-1.6-1.4c0,0,0-0.1,0-0.1V21c0-0.8,0.6-1.5,1.4-1.6c0,0,0.1,0,0.1,0h0c0.4,0,0.8,0,1.2,0s0.8,0,1.2,0h0
	c0.8,0,1.5,0.6,1.6,1.5c0,0,0,0.1,0,0.1c0,0.8,0,1.6,0,2.4v0c0,0.8-0.6,1.5-1.4,1.5c0,0-0.1,0-0.1,0H7.7L6.7,24.9z"/>
</svg>
