<?xml version="1.0" encoding="utf-8"?>
<!-- Generator: Adobe Illustrator 26.0.3, SVG Export Plug-In . SVG Version: 6.00 Build 0)  -->
<svg version="1.1" id="Layer_1" xmlns="http://www.w3.org/2000/svg" xmlns:xlink="http://www.w3.org/1999/xlink" x="0px" y="0px"
	 width="40px" height="42px" viewBox="0 0 40 42" style="enable-background:new 0 0 40 42;" xml:space="preserve">
<path d="M6.5,42H2.8c-0.1-0.1-0.2-0.1-0.3-0.1c0,0-0.1,0-0.1,0c-0.7-0.2-1.2-0.6-1.7-1.1c-0.4-0.5-0.7-1.2-0.7-1.9
	c0-0.2,0-0.4,0-0.6c0-6.7,0-13.4,0-20c0-0.8,0.3-1.6,0.9-2.1c1.2-1.1,2.4-2.1,3.5-3.2l0,0c0.7-0.7,1.5-1.4,2.2-2
	c0.1-0.1,0.2-0.2,0.2-0.3c0-0.1,0.1-0.2,0.1-0.3c0-1.5,0-3.1,0-4.6V4.9C6.8,3.8,7.6,2.8,8.7,2.7c0.2,0,0.3,0,0.5,0h0
	c2,0,4.1,0,6.1,0h0c0.1,0,0.2,0,0.3-0.1c0.1,0,0.2-0.1,0.3-0.2c0.5-0.5,1.1-1,1.6-1.5l0,0c1.3-1.2,3.3-1.2,4.6,0
	c0.6,0.5,1.2,1.1,1.7,1.6c0.1,0.1,0.2,0.1,0.3,0.2c0.1,0,0.2,0.1,0.3,0.1h0c1,0,2.2,0,3.5,0h2.6c1.1-0.1,2.1,0.7,2.3,1.8
	c0,0.2,0,0.3,0,0.5c0,0.2,0,0.5,0,0.7c0,0.2-0.1,0.3-0.2,0.4c-0.1,0.1-0.3,0.2-0.4,0.2h0c-0.2,0-0.3-0.1-0.4-0.2
	c-0.1-0.1-0.2-0.3-0.2-0.4c0-0.1,0-0.3,0-0.4c0-0.1,0-0.2,0-0.3c0-0.7-0.3-0.9-1-0.9H9.2C8.4,4,8.2,4.2,8.2,5c0,5.7,0,11.5,0,17.3
	c0,0.2,0.1,0.5,0.3,0.6c3.2,2.9,6.5,5.9,9.9,9c0.4,0.5,1.1,0.8,1.7,0.8h0c0.7,0,1.3-0.3,1.7-0.8c3.1-2.9,6.4-5.9,9.8-9
	c0.1-0.1,0.2-0.2,0.2-0.3c0-0.1,0.1-0.2,0.1-0.3c0-4.6,0-9.2,0-13.7V8.1c0-0.4,0.2-0.7,0.6-0.7h0c0.3,0,0.6,0.3,0.6,0.6
	c0,0,0,0,0,0.1c0,0.7,0,1.5,0,2.3c0,0.2,0.1,0.5,0.3,0.6c0.8,0.7,1.6,1.4,2.3,2.1c1.1,1,2.3,2.1,3.4,3.1c0.3,0.2,0.5,0.6,0.7,0.9
	c0.2,0.3,0.2,0.7,0.2,1.1c0,4.7,0,9.5,0,14.1v0c0,2,0,4,0,6c0.1,1.7-1.1,3.3-2.8,3.5c0,0,0,0,0,0l0,0L8.6,42
	c-0.2-0.2-0.5-0.4-0.3-0.8c0.2-0.4,0.5-0.4,0.8-0.4h27.3c1.2,0.1,2.2-0.7,2.4-1.9c0-0.2,0-0.3,0-0.5V18.1h0c-0.1,0-0.2,0.1-0.2,0.1
	c0,0,0,0-0.1,0.1c-5.7,5.2-10.8,9.9-15.8,14.5c-0.7,0.7-1.6,1.1-2.6,1.1h0c-1,0-1.9-0.4-2.6-1.1L1.6,18.3l-0.1-0.1
	c-0.1-0.1-0.2-0.1-0.3-0.2c0,0.1,0,0.1,0,0.2c0,0.1,0,0.2,0,0.3v20c-0.1,1.2,0.7,2.2,1.9,2.4c0.2,0,0.3,0,0.5,0l0,0h0.8h0h0.8
	c0.3,0,0.6,0,0.8,0c0.4,0,0.7,0.1,0.8,0.4C7,41.5,6.8,41.8,6.5,42L6.5,42z M33.1,12.5C33.1,12.5,33.1,12.5,33.1,12.5l0,8.9
	c0.6-0.6,1.2-1.1,1.8-1.7l0,0c1-0.9,1.9-1.7,2.8-2.6c0.1-0.1,0.1-0.2,0.1-0.2s0-0.1-0.1-0.2c-1.1-1-2.2-2-3.3-3L33.1,12.5L33.1,12.5
	C33.2,12.6,33.2,12.5,33.1,12.5L33.1,12.5z M6.9,12.5c-0.1,0-0.1,0.1-0.2,0.1l-0.3,0.3c-1.4,1.3-2.8,2.6-4.2,3.9
	c-0.1,0.1-0.1,0.1-0.1,0.2s0.1,0.1,0.1,0.2l0,0c1.3,1.2,2.8,2.5,4.4,4c0,0,0,0,0,0.1c0,0.1,0.1,0.1,0.2,0.1c0,0,0,0,0.1,0L6.9,12.5
	L6.9,12.5z M20,1.2c-0.7,0-1.4,0.4-2.4,1.5h4.8C21.8,1.9,21,1.4,20,1.2z M20,16.1L20,16.1c0.4,0,0.8-0.3,0.8-0.7c0,0,0,0,0,0
	c0-0.4,0-0.7,0-1.1c-0.1-0.5,0.3-1,0.8-1.2c0.8-0.4,1.4-1,1.8-1.8c0.3-0.8,0.4-1.7,0.1-2.5C23,8,22.4,7.3,21.7,6.9
	c-0.8-0.4-1.7-0.5-2.5-0.3c-1.6,0.4-2.7,1.7-2.7,3.4c0,0.2,0.1,0.4,0.2,0.5c0.1,0.1,0.3,0.2,0.5,0.2c0.2,0,0.4,0,0.5-0.2
	c0.2-0.1,0.2-0.3,0.3-0.5c0-0.1,0-0.2,0-0.3c0.1-1.1,1.1-1.9,2.2-1.8c0.1,0,0.1,0,0.2,0c0.8,0.2,1.5,0.9,1.6,1.7
	c0,0.4,0,0.8-0.3,1.2c-0.2,0.4-0.5,0.7-0.9,0.8c-0.8,0.3-1.4,1-1.5,1.9c0,0.3-0.1,0.7-0.1,1h0c0,0.3,0,0.5,0,0.8
	C19.2,15.7,19.5,16.1,20,16.1C20,16.1,20,16.1,20,16.1 M20,17.4c-1.1,0-2-0.9-2-2c0,0,0,0,0,0c0-0.1,0-0.3,0-0.4l0-0.4
	c0-0.4,0-0.8,0.1-1.2l0-0.1c0.2-1.3,1.1-2.4,2.3-2.8c0.1-0.1,0.2-0.2,0.3-0.3c0.1-0.1,0.1-0.2,0.1-0.4c0-0.3-0.3-0.5-0.6-0.6
	c-0.2,0-0.4,0-0.6,0.1c-0.2,0.1-0.3,0.3-0.3,0.5c0,0,0,0,0,0c0,0.1,0,0.2,0,0.3c-0.1,0.5-0.3,1-0.7,1.3c-0.4,0.3-0.9,0.5-1.5,0.4h0
	c-0.5,0-1-0.3-1.3-0.6c-0.4-0.4-0.5-0.9-0.5-1.4c0-2.2,1.6-4.1,3.7-4.6c1.2-0.3,2.4-0.1,3.4,0.4c1,0.6,1.8,1.5,2.2,2.6
	c0.4,1.1,0.4,2.3-0.1,3.4c-0.5,1.1-1.3,2-2.4,2.5c0,0.4,0,0.7,0,1.1C22.1,16.5,21.2,17.4,20,17.4C20,17.4,20,17.4,20,17.4L20,17.4z
	 M20,21.5c0.1,0,0.2,0,0.3-0.1c0.1,0,0.2-0.1,0.2-0.2c0.3-0.3,0.3-0.7,0-1c0,0,0,0,0,0c-0.3-0.3-0.8-0.2-1,0c-0.3,0.3-0.3,0.7,0,1
	c0,0,0,0,0,0C19.6,21.5,19.8,21.5,20,21.5 M20,22.8c-0.5,0-1-0.2-1.4-0.5c-0.8-0.7-0.9-2-0.2-2.8c0,0,0.1-0.1,0.1-0.1
	c0.8-0.8,2-0.8,2.8-0.1c0.8,0.7,0.9,2,0.2,2.8c0,0-0.1,0.1-0.1,0.1c-0.2,0.2-0.4,0.3-0.7,0.5l0,0C20.6,22.8,20.3,22.8,20,22.8
	L20,22.8z M34,38c0.4,0,0.7,0,1.1,0c0.6,0,0.9-0.3,0.9-0.8c0-0.5-0.3-0.7-0.9-0.7h-5.3c-0.6,0-0.9,0.3-0.9,0.7s0.3,0.7,0.9,0.7
	L34,38 M34,39.3h-4.1c-1.1,0.1-2.1-0.8-2.2-1.9c0,0,0-0.1,0-0.1c0-1.1,0.9-2,2-2c0.1,0,0.1,0,0.2,0h5.3c1.1-0.1,2.1,0.8,2.2,1.9
	c0,0.6-0.2,1.1-0.6,1.5c-0.4,0.4-1,0.6-1.6,0.6C34.8,39.3,34.4,39.3,34,39.3L34,39.3z"/>
</svg>
