<?xml version="1.0" encoding="utf-8"?>
<!-- Generator: Adobe Illustrator 26.0.3, SVG Export Plug-In . SVG Version: 6.00 Build 0)  -->
<svg version="1.1" id="Layer_1" xmlns="http://www.w3.org/2000/svg" xmlns:xlink="http://www.w3.org/1999/xlink" x="0px" y="0px"
	 width="34px" height="44px" viewBox="0 0 34 44" style="enable-background:new 0 0 34 44;" xml:space="preserve">
<style type="text/css">
	.st0{fill:#010101;}
</style>
<path class="st0" d="M17,35.2H4.6c-0.6,0-1-0.2-1-0.6c0-0.4,0.3-0.7,1-0.7h24.8c0.2,0,0.4,0,0.6,0.1c0.3,0.1,0.4,0.4,0.4,0.6
	c0,0.3-0.2,0.5-0.5,0.6c-0.2,0-0.3,0-0.5,0C25.3,35.2,21.1,35.2,17,35.2z M13.7,37.8h9.1c0.7,0,1,0.2,1,0.7s-0.3,0.6-1,0.6H4.6
	c-0.7,0-1-0.2-1-0.7s0.3-0.6,1-0.6H13.7z M10.6,31.3h-6c-0.1,0-0.3,0-0.4,0c-0.4-0.1-0.6-0.4-0.5-0.7c0-0.1,0-0.2,0.1-0.3
	c0.1-0.1,0.2-0.2,0.4-0.2c0.2,0,0.3-0.1,0.5,0h12.3c0.4,0,0.7,0.3,0.7,0.6c0,0.4-0.3,0.6-0.7,0.6c0,0-0.1,0-0.1,0
	C14.8,31.3,12.7,31.3,10.6,31.3z M27.9,39.1c-0.6,0-1.1,0-1.7,0c-0.5,0-0.8-0.3-0.8-0.7s0.3-0.6,0.8-0.6c1.1,0,2.3,0,3.4,0
	c0.5,0,0.8,0.3,0.8,0.6s-0.3,0.6-0.8,0.6C29,39.1,28.5,39.1,27.9,39.1z M33.7,9.5c-1.1-1.1-2.2-2.3-3.3-3.4l-6-6.1H1.6
	C0.5,0.3-0.1,1.4,0,2.5c0,2.3,0,4.7,0,7c0,0.1,0,0.3,0,0.4c0,0.3,0.3,0.5,0.6,0.5c0.3,0,0.6-0.2,0.6-0.5c0-0.1,0-0.3,0-0.4V2.2
	c0-0.7,0.2-0.9,0.9-0.9c7,0,14,0,20.9,0c0.3,0,0.4,0.1,0.4,0.4c0,2.3,0,4.6,0,6.8c-0.2,1.1,0.6,2.1,1.6,2.2c0.2,0,0.3,0,0.5,0
	c2.2-0.1,4.4,0,6.6,0c0.4,0,0.5,0.1,0.5,0.5c0,10.1,0,20.3,0,30.4c0,0.9-0.2,1-1,1H2.3c-0.8,0-1-0.2-1-1V13.2c0-0.2,0-0.3,0-0.5
	c0-0.3-0.3-0.5-0.6-0.5c-0.3,0-0.6,0.2-0.6,0.5c0,0.1,0,0.3,0,0.4v28.7c-0.1,1.1,0.6,2,1.7,2.2c0.1,0,0.3,0,0.4,0h29.8
	c1.1,0.1,2-0.7,2.1-1.8c0-0.1,0-0.3,0-0.4c0-10.5,0-21,0-31.5c0-0.2,0-0.3-0.1-0.5C33.9,9.7,33.8,9.6,33.7,9.5z M28.7,9.5h-3.3
	c-0.4,0-0.6-0.1-0.6-0.5c0-2.2,0-4.4,0-6.5l6.9,7.1L28.7,9.5z M17,25c4-0.1,7.3-3.4,7.2-7.4c0-1.9-0.8-3.8-2.1-5.2
	C20.8,11,19,10.3,17,10.2c-4.1,0.1-7.3,3.5-7.2,7.6C10,21.8,13.1,24.9,17,25 M17,26.3L17,26.3c-4.8-0.1-8.6-3.9-8.5-8.7
	c0-4.7,3.8-8.6,8.5-8.7h0c2.3,0,4.4,0.9,6,2.6c1.6,1.6,2.5,3.8,2.5,6.1C25.6,22.4,21.8,26.3,17,26.3L17,26.3z M16.6,20.8L16.6,20.8
	c-0.4,0-0.8-0.2-1-0.4c-0.5-0.4-0.9-0.9-1.3-1.4c-0.4-0.4-0.5-1.1-0.3-1.6c0.2-0.5,0.7-0.9,1.3-0.9h0.1c0.4,0,0.8,0.2,1.1,0.5
	c0.1,0.1,0.1,0.1,0.2,0.1s0.1-0.1,0.2-0.1c0.4-0.4,0.8-0.9,1.2-1.3c0.3-0.3,0.6-0.5,1-0.5h0c0.4,0,0.7,0.1,1,0.4
	c0.1,0.1,0.3,0.3,0.3,0.5c0.2,0.4,0.2,0.8,0,1.2c-0.1,0.2-0.2,0.4-0.3,0.5c-0.8,0.9-1.6,1.7-2.5,2.6C17.4,20.6,17,20.8,16.6,20.8
	L16.6,20.8z M15.3,17.5c-0.1,0-0.2,0-0.3,0.1c-0.1,0.1-0.2,0.1-0.2,0.2c-0.1,0.1-0.1,0.2,0,0.3c0,0.1,0.1,0.2,0.2,0.3
	c0.4,0.4,0.8,0.8,1.2,1.2c0.1,0.1,0.3,0.2,0.4,0.2h0c0.2,0,0.3-0.1,0.4-0.2c0.2-0.2,0.5-0.5,0.7-0.8l0.3-0.3l0.1-0.1
	c0.4-0.4,0.9-0.9,1.3-1.4c0.2-0.2,0.2-0.5,0.1-0.8c-0.1-0.1-0.1-0.1-0.2-0.1c-0.1,0-0.1,0-0.2,0c-0.2,0-0.3,0.1-0.4,0.2
	c-0.5,0.6-1.1,1.2-1.6,1.7c-0.1,0.1-0.2,0.2-0.4,0.2h0c-0.2,0-0.3-0.1-0.4-0.2c-0.1-0.1-0.2-0.2-0.3-0.3c-0.1-0.1-0.1-0.1-0.2-0.2
	c0-0.1-0.1-0.1-0.2-0.1C15.4,17.5,15.4,17.5,15.3,17.5L15.3,17.5z"/>
</svg>
