<svg xmlns="http://www.w3.org/2000/svg" xmlns:xlink="http://www.w3.org/1999/xlink" width="20" height="20" viewBox="0 0 20 20">
  <defs>
    <clipPath id="clip-path">
      <path id="Path_51" data-name="Path 51" d="M0,0H20V20H0Z" fill="#fff"/>
    </clipPath>
  </defs>
  <g id="incident-reports" clip-path="url(#clip-path)">
    <path id="Path_48" data-name="Path 48" d="M.375,18.25h19.25v1.375H.375Z" fill="#1a1818"/>
    <path id="Path_49" data-name="Path 49" d="M6.9,8.576,9.813,5.658l.972.973L7.868,9.548Z" fill="#1a1818"/>
    <path id="Path_50" data-name="Path 50" d="M7.306,15.11l2.83,1.594a1.381,1.381,0,0,0,1.64-.23L17.848,10.4a1.382,1.382,0,0,0,.23-1.64L16.5,5.918l1.231-1.231-.972-.972-.972.972-3.4-3.4a1.377,1.377,0,0,0-1.944,0L8.979-.175,8.006.8,9.464,2.256,3.631,8.09,2.173,6.631,1.2,7.6,2.658,9.062a1.376,1.376,0,0,0,0,1.946l3.4,3.4-.972.971.972.972Zm9.57-5.681L10.8,15.5,7.678,13.765,15.14,6.3ZM5.575,11.98l.972-.973-.972-.972-.972.972-.973-.972,7.779-7.779.972.973-.972.972.972.972.973-.972.972.972L6.548,12.951Z" fill="#1a1818"/>
  </g>
</svg>
