<svg width="20" height="20" viewBox="0 0 20 20" fill="none" xmlns="http://www.w3.org/2000/svg">
<path d="M10 2.28515C9.73736 2.28515 9.47729 2.33504 9.23463 2.43197C8.99198 2.5289 8.77151 2.67096 8.58579 2.85006C8.40007 3.02916 8.25275 3.24178 8.15224 3.47578C8.05173 3.70978 8 3.96058 8 4.21387C8 4.46715 8.05173 4.71795 8.15224 4.95195C8.25275 5.18595 8.40007 5.39857 8.58579 5.57767C8.77151 5.75677 8.99198 5.89884 9.23463 5.99576C9.47729 6.09269 9.73736 6.14258 10 6.14258C10.5304 6.14258 11.0391 5.93937 11.4142 5.57767C11.7893 5.21597 12 4.72539 12 4.21387C12 3.70234 11.7893 3.21176 11.4142 2.85006C11.0391 2.48836 10.5304 2.28515 10 2.28515ZM6.66667 4.21387C6.6668 3.60566 6.84585 3.00997 7.18303 2.49598C7.5202 1.98199 8.00167 1.57079 8.57151 1.31014C9.14134 1.0495 9.77617 0.950098 10.4022 1.02349C11.0283 1.09689 11.62 1.34006 12.1084 1.72477C12.5969 2.10948 12.9622 2.61995 13.1619 3.19687C13.3615 3.77379 13.3874 4.3935 13.2364 4.98403C13.0854 5.57455 12.7638 6.11165 12.309 6.53295C11.8541 6.95425 11.2846 7.24245 10.6667 7.3641V9.3571H13.3333C13.8638 9.3571 14.3725 9.5603 14.7475 9.922C15.1226 10.2837 15.3333 10.7743 15.3333 11.2858V12.6359C16.1427 12.7952 16.8619 13.2387 17.3515 13.8803C17.841 14.5219 18.0661 15.316 17.9831 16.1086C17.9001 16.9011 17.5149 17.6358 16.9021 18.17C16.2893 18.7042 15.4927 19 14.6667 19C13.8406 19 13.044 18.7042 12.4312 18.17C11.8185 17.6358 11.4332 16.9011 11.3502 16.1086C11.2672 15.316 11.4923 14.5219 11.9819 13.8803C12.4714 13.2387 13.1906 12.7952 14 12.6359V11.2858C14 11.1153 13.9298 10.9518 13.8047 10.8312C13.6797 10.7106 13.5101 10.6429 13.3333 10.6429H6.66667C6.48986 10.6429 6.32029 10.7106 6.19527 10.8312C6.07024 10.9518 6 11.1153 6 11.2858V12.6359C6.80937 12.7952 7.52855 13.2387 8.01813 13.8803C8.50772 14.5219 8.73281 15.316 8.64979 16.1086C8.56676 16.9011 8.18153 17.6358 7.56877 18.17C6.95601 18.7042 6.15939 19 5.33334 19C4.50729 19 3.71066 18.7042 3.0979 18.17C2.48515 17.6358 2.09991 16.9011 2.01689 16.1086C1.93386 15.316 2.15896 14.5219 2.64854 13.8803C3.13812 13.2387 3.85731 12.7952 4.66667 12.6359V11.2858C4.66667 10.7743 4.87739 10.2837 5.25246 9.922C5.62753 9.5603 6.13624 9.3571 6.66667 9.3571H9.33333V7.3641C8.58043 7.21589 7.90374 6.82137 7.4178 6.24731C6.93186 5.67325 6.66651 4.95491 6.66667 4.21387ZM5.33334 13.8574C5.07069 13.8574 4.81062 13.9073 4.56797 14.0042C4.32532 14.1012 4.10484 14.2432 3.91913 14.4223C3.73341 14.6014 3.58609 14.814 3.48558 15.0481C3.38507 15.2821 3.33334 15.5329 3.33334 15.7861C3.33334 16.0394 3.38507 16.2902 3.48558 16.5242C3.58609 16.7582 3.73341 16.9708 3.91913 17.1499C4.10484 17.329 4.32532 17.4711 4.56797 17.568C4.81062 17.665 5.07069 17.7148 5.33334 17.7148C5.86377 17.7148 6.37248 17.5116 6.74755 17.1499C7.12262 16.7882 7.33334 16.2977 7.33334 15.7861C7.33334 15.2746 7.12262 14.784 6.74755 14.4223C6.37248 14.0606 5.86377 13.8574 5.33334 13.8574ZM14.6667 13.8574C14.404 13.8574 14.1439 13.9073 13.9013 14.0042C13.6586 14.1012 13.4382 14.2432 13.2525 14.4223C13.0667 14.6014 12.9194 14.814 12.8189 15.0481C12.7184 15.2821 12.6667 15.5329 12.6667 15.7861C12.6667 16.0394 12.7184 16.2902 12.8189 16.5242C12.9194 16.7582 13.0667 16.9708 13.2525 17.1499C13.4382 17.329 13.6586 17.4711 13.9013 17.568C14.1439 17.665 14.404 17.7148 14.6667 17.7148C15.1971 17.7148 15.7058 17.5116 16.0809 17.1499C16.4559 16.7882 16.6667 16.2977 16.6667 15.7861C16.6667 15.2746 16.4559 14.784 16.0809 14.4223C15.7058 14.0606 15.1971 13.8574 14.6667 13.8574Z" fill="#1A1818"/>
</svg>
