<svg xmlns="http://www.w3.org/2000/svg" width="18" height="18" viewBox="0 0 18 18">
  <g id="people" transform="translate(-1 -1)">
    <path id="Path_52" data-name="Path 52" d="M3.571,3.578A2.571,2.571,0,1,1,4.324,5.4,2.57,2.57,0,0,1,3.571,3.578ZM6.143,2.293a1.285,1.285,0,1,0,.909.376A1.286,1.286,0,0,0,6.143,2.293Z" fill="#1a1818"/>
    <path id="Path_53" data-name="Path 53" d="M12.287,5.614a2.573,2.573,0,1,1,1.887.482,2.571,2.571,0,0,1-1.887-.482Zm1.57-3.321a1.285,1.285,0,1,0,.909.376A1.286,1.286,0,0,0,13.857,2.293Z" fill="#1a1818"/>
    <path id="Path_54" data-name="Path 54" d="M2.929,7.434H6.361a3.87,3.87,0,0,0-.219,1.285H2.929a.643.643,0,0,0-.643.643A2.89,2.89,0,0,0,3.363,11.72a3.619,3.619,0,0,0,1.079.585,3.212,3.212,0,0,0-.684,1.116,4.8,4.8,0,0,1-1.2-.7A4.177,4.177,0,0,1,1,9.361,1.928,1.928,0,0,1,2.929,7.434Z" fill="#1a1818"/>
    <path id="Path_55" data-name="Path 55" d="M7.773,7.434a2.573,2.573,0,1,0,1.562-1.2A2.57,2.57,0,0,0,7.773,7.434Zm1.939.032a1.285,1.285,0,1,1-.622.345A1.29,1.29,0,0,1,9.712,7.466Z" fill="#1a1818"/>
    <path id="Path_56" data-name="Path 56" d="M16.637,11.72a3.62,3.62,0,0,1-1.079.585,3.213,3.213,0,0,1,.683,1.116,4.87,4.87,0,0,0,1.2-.7A4.177,4.177,0,0,0,19,9.361a1.928,1.928,0,0,0-1.929-1.928H13.639a3.871,3.871,0,0,1,.219,1.285h3.214a.643.643,0,0,1,.643.643A2.89,2.89,0,0,1,16.637,11.72Z" fill="#1a1818"/>
    <path id="Path_57" data-name="Path 57" d="M13.214,12.574A1.928,1.928,0,0,1,15.143,14.5a4.173,4.173,0,0,1-1.558,3.361A5.7,5.7,0,0,1,10,19a5.7,5.7,0,0,1-3.585-1.137A4.177,4.177,0,0,1,4.857,14.5a1.923,1.923,0,0,1,1.929-1.928Zm0,1.285H6.786a.643.643,0,0,0-.643.642A2.89,2.89,0,0,0,7.22,16.86a4.424,4.424,0,0,0,2.78.855,4.424,4.424,0,0,0,2.78-.855A2.89,2.89,0,0,0,13.857,14.5a.643.643,0,0,0-.643-.642Z" fill="#1a1818"/>
  </g>
</svg>
