<svg xmlns="http://www.w3.org/2000/svg" width="18" height="18" viewBox="0 0 18 18">
  <path id="picture" d="M13.643,3H10.357C9.273,3,8.4,3,7.691,3.058a5.126,5.126,0,0,0-1.961.487A5,5,0,0,0,3.545,5.73a5.126,5.126,0,0,0-.487,1.961C3,8.4,3,9.273,3,10.357H3v3.286H3c0,.528,0,1.007.007,1.44h0c.007.456.021.863.051,1.225a7.045,7.045,0,0,0,.146,1h0a4.115,4.115,0,0,0,.341.957A5,5,0,0,0,5.73,20.455a5.127,5.127,0,0,0,1.961.487C8.4,21,9.273,21,10.357,21h3.286c1.084,0,1.958,0,2.666-.058a5.127,5.127,0,0,0,1.961-.487,5,5,0,0,0,2.185-2.185,5.127,5.127,0,0,0,.487-1.961C21,15.6,21,14.727,21,13.643V10.357c0-1.084,0-1.958-.058-2.666a5.127,5.127,0,0,0-.487-1.961A5,5,0,0,0,18.27,3.545a5.126,5.126,0,0,0-1.961-.487C15.6,3,14.727,3,13.643,3ZM5.053,16.169a3.151,3.151,0,0,0,.274,1.193,3,3,0,0,0,1.311,1.311,3.19,3.19,0,0,0,1.216.276C8.471,19,9.263,19,10.4,19h3.2c1.137,0,1.929,0,2.546-.051a3.19,3.19,0,0,0,1.216-.276,3,3,0,0,0,1.311-1.311,3.19,3.19,0,0,0,.276-1.216c.017-.2.028-.427.036-.676l-3.159-2.058a3.238,3.238,0,0,0-.679-.4.5.5,0,0,0-.237.005,3.231,3.231,0,0,0-.661.433l-2.506,1.789-.081.058a3.831,3.831,0,0,1-1.073.608,2.5,2.5,0,0,1-1.061.089,3.833,3.833,0,0,1-1.158-.421h0l-.09-.044-.528-.257a3.053,3.053,0,0,0-.589-.262.5.5,0,0,0-.2.01,3.046,3.046,0,0,0-.56.32ZM19,13.093V10.4c0-1.137,0-1.929-.051-2.546a3.19,3.19,0,0,0-.276-1.216,3,3,0,0,0-1.311-1.311,3.191,3.191,0,0,0-1.216-.276C15.529,5,14.737,5,13.6,5H10.4c-1.137,0-1.929,0-2.546.051a3.191,3.191,0,0,0-1.216.276A3,3,0,0,0,5.327,6.638a3.191,3.191,0,0,0-.276,1.216C5,8.471,5,9.263,5,10.4v3.2q0,.128,0,.251l.35-.216.079-.049h0a3.809,3.809,0,0,1,1.035-.507,2.5,2.5,0,0,1,1-.05,3.809,3.809,0,0,1,1.081.4l.083.041.528.257a3.1,3.1,0,0,0,.635.28A.5.5,0,0,0,10,13.989a3.1,3.1,0,0,0,.579-.382l2.506-1.789.093-.067h0a3.886,3.886,0,0,1,1.214-.671,2.5,2.5,0,0,1,1.186-.025,3.881,3.881,0,0,1,1.242.619l.1.063ZM11,9A2,2,0,1,1,9,7,2,2,0,0,1,11,9Z" transform="translate(-3 -3)" fill="#f5b544" fill-rule="evenodd"/>
</svg>
