<svg xmlns="http://www.w3.org/2000/svg" width="18" height="18" viewBox="0 0 18 18">
  <path id="requests" d="M9.571,2.714A1.714,1.714,0,0,1,11.286,1h6A1.714,1.714,0,0,1,19,2.714V7.857a1.714,1.714,0,0,1-1.714,1.714h-6A1.714,1.714,0,0,1,9.571,7.857Zm2.143.857a.429.429,0,1,0,0,.857h5.143a.429.429,0,1,0,0-.857Zm0,2.572a.429.429,0,1,0,0,.857h5.143a.429.429,0,1,0,0-.857ZM3.786,2.714H8.714V4H3.786a1.5,1.5,0,0,0-1.5,1.5v7.286a1.5,1.5,0,0,0,1.5,1.5H5.713V17.5l4.3-3.214h5.345a1.5,1.5,0,0,0,1.5-1.5V10.429h.429a2.582,2.582,0,0,0,.857-.146v2.5a2.786,2.786,0,0,1-2.786,2.786H10.439l-4.3,3.214a1.071,1.071,0,0,1-1.713-.857V15.572H3.787A2.786,2.786,0,0,1,1,12.786V5.5A2.786,2.786,0,0,1,3.786,2.714Z" transform="translate(-1 -1)" fill="#1a1818"/>
</svg>
