<svg xmlns="http://www.w3.org/2000/svg" width="17.778" height="16" viewBox="0 0 17.778 16">
  <g id="vehicles" transform="translate(-1.111 -3)">
    <path id="Path_58" data-name="Path 58" d="M17.8,8.472,16.581,4.823A2.662,2.662,0,0,0,14.053,3h-8.1A2.662,2.662,0,0,0,3.419,4.823L2.2,8.472a1.78,1.78,0,0,0-1.092,1.639v4.444A1.772,1.772,0,0,0,2.035,16.1.882.882,0,0,0,2,16.278v1.833A.889.889,0,0,0,2.889,19h.889a.889.889,0,0,0,.889-.889V16.333H15.333v1.778a.889.889,0,0,0,.889.889h.889A.889.889,0,0,0,18,18.111V16.278a.865.865,0,0,0-.035-.173,1.771,1.771,0,0,0,.924-1.549V10.111A1.781,1.781,0,0,0,17.8,8.472ZM2.889,14.556V10.111H17.111l0,4.444ZM5.948,4.778h8.1a.887.887,0,0,1,.844.608l.983,2.948H4.122L5.1,5.386a.889.889,0,0,1,.844-.608Z" fill="#1a1818"/>
    <path id="Path_59" data-name="Path 59" d="M5.111,14.667a1.333,1.333,0,1,0-1.333-1.333A1.333,1.333,0,0,0,5.111,14.667Z" fill="#1a1818"/>
    <path id="Path_60" data-name="Path 60" d="M14.889,14.667a1.333,1.333,0,1,0-1.333-1.333A1.333,1.333,0,0,0,14.889,14.667Z" fill="#1a1818"/>
  </g>
</svg>
