<svg xmlns="http://www.w3.org/2000/svg" width="18" height="16" viewBox="0 0 18 16">
  <path id="weapons" d="M5.5,15.019a.779.779,0,0,1-.229.545.686.686,0,0,1-.51.244.721.721,0,0,1-.545-.244.779.779,0,0,1-.229-.545.823.823,0,0,1,.229-.582.721.721,0,0,1,.545-.244.686.686,0,0,1,.51.244A.823.823,0,0,1,5.5,15.019ZM17.488,3.789H7.75v.075A3.889,3.889,0,0,0,5.5,5.4q-.281,0-.475-.394A2.257,2.257,0,0,1,4.8,4.2l-.035-.413H3.25a4.812,4.812,0,0,0,.387,1.84,2.215,2.215,0,0,0,1.2,1.277,1.092,1.092,0,0,1-.035.225,1.2,1.2,0,0,0-.035.188,4.359,4.359,0,0,0-2.25,2.629q-.457,1.352-.844,2.986t-.527,2.535Q1,16.371,1,16.521a2.643,2.643,0,0,0,.457,1.69A2,2,0,0,0,3.25,19H5.5a2.133,2.133,0,0,0,1.635-.657A2.452,2.452,0,0,0,7.75,16.6q0-.9.141-2.4H9.262a2.774,2.774,0,0,0,1.828-.676,3.308,3.308,0,0,0,1.09-1.728h.809a2.651,2.651,0,0,0,2.566-1.577h1.582q.352,0,.352-.413t-.352-.413h-1.2a3.722,3.722,0,0,1,.035-.394,3.742,3.742,0,0,0,.035-.394H19V3h-.738A.69.69,0,0,0,17.488,3.789ZM7.75,5.554v4.47a2.114,2.114,0,0,1-1.09-.845,2.383,2.383,0,0,1-.422-1.371A2.444,2.444,0,0,1,6.66,6.4,2.114,2.114,0,0,1,7.75,5.554ZM5.5,17.423H3.25q-.527,0-.668-.188a1.511,1.511,0,0,1-.07-.563,31.587,31.587,0,0,1,1.406-6.235A3.134,3.134,0,0,1,4.9,9.009a3.672,3.672,0,0,0,1.863,2.329A39.306,39.306,0,0,0,6.238,16.6Q6.238,17.423,5.5,17.423Zm3.762-4.808H8.137a6.246,6.246,0,0,0,.141-.826h2.25A1.268,1.268,0,0,1,9.262,12.615Zm3.727-2.4H9.262V5.4H14.5v.789H11.125q-.387,0-.387.413a.337.337,0,0,0,.387.376H14.5v.826H11.125a.337.337,0,0,0-.387.376q0,.413.387.413H14.5a1.634,1.634,0,0,1-.439,1.127A1.389,1.389,0,0,1,12.988,10.211Zm4.5-3.23H16.012V5.4h1.477Z" transform="translate(-1 -3)" fill="#1a1818"/>
</svg>
